<svg width="199.964990234375px" height="122px" xmlns="http://www.w3.org/2000/svg" viewBox="150.0175048828125 14 199.964990234375 122" style="background: rgba(0, 0, 0, 0);" preserveAspectRatio="xMidYMid"><defs>
  <filter id="editing-scratch" x="-100%" y="-100%" width="300%" height="300%">
    <!-- COLOR -->
    <feFlood flood-color="#ddd" flood-opacity="0.75" result="COLOR-blu"></feFlood>
    <feFlood flood-color="#666" flood-opacity="0.4" result="COLOR-red"></feFlood>
    <!-- COLOR END -->

    <!-- Texture -->
    <feTurbulence baseFrequency=".05" type="fractalNoise" numOctaves="3" seed="0" result="Texture_10"></feTurbulence>
    <feColorMatrix type="matrix" values="0 0 0 0 0,
    0 0 0 0 0,
    0 0 0 0 0,
    0 0 0 -2.1 1.1" in="Texture_10" result="Texture_20"></feColorMatrix>

    <feColorMatrix result="Texture_30" type="matrix" values="0 0 0 0 0,
    0 0 0 0 0,
    0 0 0 0 0,
    0 0 0 -1.7 1.8" in="Texture_10"></feColorMatrix>
    <!-- Texture -->

    <!-- FILL -->
    <feOffset dx="-3" dy="4" in="SourceAlpha" result="FILL_10"></feOffset>
    <feDisplacementMap scale="17" in="FILL_10" in2="Texture_10" result="FILL_20"></feDisplacementMap>
    <feComposite operator="in" in="Texture_30" in2="FILL_20" result="FILL_40"></feComposite>
    <feComposite operator="in" in="COLOR-blu" in2="FILL_40" result="FILL_50"></feComposite>
    <!-- FILL END-->

    <!-- OUTLINE -->
    <feMorphology operator="dilate" radius="3" in="SourceGraphic" result="OUTLINE_10"></feMorphology>
    <feComposite operator="out" in="OUTLINE_10" in2="SourceGraphic" result="OUTLINE_20"></feComposite>
    <feDisplacementMap scale="7" in="OUTLINE_20" in2="Texture_10" result="OUTLINE_30"></feDisplacementMap>
    <feComposite operator="arithmetic" k2="-1" k3="1" in="Texture_20" in2="OUTLINE_30" result="OUTLINE_40"></feComposite>
    <!-- OUTLINE END-->

    <!-- BEVEL OUTLINE -->
    <feConvolveMatrix order="8,8" divisor="1" kernelMatrix="1 0 0 0 0 0 0 0 0 1 0 0 0 0 0 0 0 0 1 0 0 0 0 0 0 0 0 1 0 0 0 0 0 0 0 0 1 0 0 0 0 0 0 0 0 1 0 0 0 0 0 0 0 0 1 0 0 0 0 0 0 0 0 1 " in="SourceGraphic" result="BEVEL_10"></feConvolveMatrix>
    <feMorphology operator="dilate" radius="2" in="BEVEL_10" result="BEVEL_20"></feMorphology>
    <feComposite operator="out" in="BEVEL_20" in2="BEVEL_10" result="BEVEL_30"></feComposite>
    <feDisplacementMap scale="7" in="BEVEL_30" in2="Texture_10" result="BEVEL_40"></feDisplacementMap>
    <feComposite operator="arithmetic" k2="-1" k3="1" in="Texture_20" in2="BEVEL_40" result="BEVEL_50"></feComposite>
    <feOffset dx="-7" dy="-7" in="BEVEL_50" result="BEVEL_60"></feOffset>
    <feComposite operator="out" in="BEVEL_60" in2="OUTLINE_10" result="BEVEL_70"></feComposite>
    <!-- BEVEL OUTLINE END -->

    <!-- BEVEL FILL -->
    <feOffset dx="-9" dy="-9" in="BEVEL_10" result="BEVEL-FILL_10"></feOffset>
    <feComposite operator="out" in="BEVEL-FILL_10" in2="OUTLINE_10" result="BEVEL-FILL_20"></feComposite>
    <feDisplacementMap scale="17" in="BEVEL-FILL_20" in2="Texture_10" result="BEVEL-FILL_30"></feDisplacementMap>
    <feComposite operator="in" in="COLOR-red" in2="BEVEL-FILL_30" result="BEVEL-FILL_50"></feComposite> <!-- -->
    <!-- BEVEL FILL END-->

    <feMerge result="merge2">
     <feMergeNode in="BEVEL-FILL_50"></feMergeNode>
     <feMergeNode in="BEVEL_70"></feMergeNode>
     <feMergeNode in="FILL_50"></feMergeNode>
      <feMergeNode in="OUTLINE_40"></feMergeNode>
    </feMerge>
  </filter>
</defs>
<g filter="url(#editing-scratch)"><g transform="translate(184.35673189163208, 98.68000030517578)"><path d="M26.05-37.12L26.05-37.12L26.05-37.12Q26.94-38.66 26.94-40.32L26.94-40.32L26.94-40.32Q26.94-43.26 25.15-43.26L25.15-43.26L25.15-43.26Q22.40-43.26 21.25-37.63L21.25-37.63L20.29-32.64L26.11-32.64L25.73-29.76L19.71-29.76L13.95 0L1.02 1.28L7.17-29.76L2.62-29.76L3.20-32.64L7.68-32.64L9.02-37.70L9.02-37.70Q10.18-42.37 15.10-44.54L15.10-44.54L15.10-44.54Q18.69-46.08 24.70-46.08L24.70-46.08L24.70-46.08Q30.72-46.08 33.41-44.54L33.41-44.54L33.41-44.54Q36.10-43.01 36.10-40.96L36.10-40.96L36.10-40.96Q36.10-38.91 34.50-37.63L34.50-37.63L34.50-37.63Q32.90-36.35 31.10-36.35L31.10-36.35L31.10-36.35Q27.58-36.35 26.05-37.12ZM52.61 1.28L52.61 1.28L52.61 1.28Q44.86 1.28 44.86-4.74L44.86-4.74L44.86-4.74Q44.93-6.40 45.44-9.22L45.44-9.22L46.59-15.10L46.59-15.10Q48.32-23.42 48.32-25.28L48.32-25.28L48.32-25.28Q48.32-28.99 46.14-28.99L46.14-28.99L46.14-28.99Q42.50-28.99 40.58-19.46L40.58-19.46L36.80 0L23.94 1.28L30.59-32.70L41.09-33.92L40.06-27.65L40.06-27.65Q43.07-33.92 52.29-33.92L52.29-33.92L52.29-33.92Q56.77-33.92 58.66-32.03L58.66-32.03L58.66-32.03Q60.54-30.14 60.54-25.92L60.54-25.92L60.54-25.92Q60.54-21.95 58.50-12.67L58.50-12.67L58.50-12.67Q57.54-8.51 57.54-6.94L57.54-6.94L57.54-6.94Q57.54-5.38 58.40-4.48L58.40-4.48L58.40-4.48Q59.26-3.58 60.54-3.46L60.54-3.46L60.54-3.46Q59.90-1.28 57.70 0L57.70 0L57.70 0Q55.49 1.28 52.61 1.28ZM85.70-17.98L85.70-17.98L85.70-17.98Q88-22.08 88-26.24L88-26.24L88-26.24Q88-28.99 86.02-28.99L86.02-28.99L86.02-28.99Q84.48-28.99 82.88-26.37L82.88-26.37L82.88-26.37Q81.22-23.74 80.70-20.35L80.70-20.35L77.38 0L64.13 1.28L70.66-32.64L81.22-33.92L80.06-27.46L80.06-27.46Q83.20-33.92 90.24-33.92L90.24-33.92L90.24-33.92Q93.95-33.92 95.97-32L95.97-32L95.97-32Q97.98-30.08 97.98-26.14L97.98-26.14L97.98-26.14Q97.98-22.21 95.39-19.71L95.39-19.71L95.39-19.71Q92.80-17.22 88.38-17.22L88.38-17.22L88.38-17.22Q86.46-17.22 85.70-17.98ZM119.04-17.98L119.04-17.98L119.04-17.98Q121.34-22.08 121.34-26.24L121.34-26.24L121.34-26.24Q121.34-28.99 119.36-28.99L119.36-28.99L119.36-28.99Q117.82-28.99 116.22-26.37L116.22-26.37L116.22-26.37Q114.56-23.74 114.05-20.35L114.05-20.35L110.72 0L97.47 1.28L104.00-32.64L114.56-33.92L113.41-27.46L113.41-27.46Q116.54-33.92 123.58-33.92L123.58-33.92L123.58-33.92Q127.30-33.92 129.31-32L129.31-32L129.31-32Q131.33-30.08 131.33-26.14L131.33-26.14L131.33-26.14Q131.33-22.21 128.74-19.71L128.74-19.71L128.74-19.71Q126.14-17.22 121.73-17.22L121.73-17.22L121.73-17.22Q119.81-17.22 119.04-17.98Z" fill="#000"></path></g></g><style>text {
  font-size: 64px;
  font-family: Arial Black;
  dominant-baseline: central;
  text-anchor: middle;
}</style></svg>